#!OML:ASF F:\VICON\USERDATA\INSTALL\Justin_Nancy\Justin_Nancy.ASF
:FULLY-SPECIFIED
:DEGREES
67
root 14.5207 16.6811 -5.30831 -2.02475 -11.5839 1.48488
lowerback 12.3845 3.091 1.54955
upperback 1.19462 4.28912 -0.270978
thorax -5.54071 2.06623 -1.87649
lowerneck -19.2496 -6.84936 -11.6617
upperneck 13.6807 -8.36047 11.895
head 8.43272 -3.44916 4.81914
rclavicle -3.27995e-015 -1.11319e-014
rhumerus -44.5287 16.9108 -93.3
rradius 119.449
rwrist -15.8925
rhand -6.48202 18.3049
rfingers 7.12502
rthumb 19.3689 -10.7505
lclavicle -3.27995e-015 -1.11319e-014
lhumerus -58.2694 -4.37757 90.5193
lradius 112.455
lwrist 22.7405
lhand -16.7362 18.1684
lfingers 7.12502
lthumb 9.48987 47.9348
rfemur -12.2968 -5.07046 24.3514
rtibia 66.3251
rfoot 5.85645 14.2411
rtoes 16.0938
lfemur -24.0333 -10.2267 2.96282
ltibia 21.0162
lfoot 7.31087 -1.84918
ltoes -17.8242
68
root 14.496 16.6157 -5.02434 -2.03908 -12.4311 1.51461
lowerback 12.4636 3.18091 1.52717
upperback 1.25812 4.40019 -0.347679
thorax -5.50875 2.1211 -1.96484
lowerneck -19.6032 -6.84066 -11.4057
upperneck 14.0218 -8.36164 11.6353
head 8.58387 -3.44583 4.6854
rclavicle -3.04141e-014 3.97569e-016
rhumerus -44.6191 16.9746 -93.4879
rradius 118.866
rwrist -15.4807
rhand -6.19026 18.8789
rfingers 7.12502
rthumb 19.6494 -10.148
lclavicle -3.04141e-014 3.97569e-016
lhumerus -58.5084 -4.39076 90.4249
lradius 112.93
lwrist 22.8916
lhand -15.7091 15.8278
lfingers 7.12502
lthumb 10.4807 45.5465
rfemur -12.5287 -4.5298 23.708
rtibia 67.8401
rfoot 7.35407 15.3404
rtoes 15.7503
lfemur -23.567 -9.58627 3.0261
ltibia 21.1764
lfoot 6.68676 -3.87431
ltoes -21.1646
69
root 14.4698 16.543 -4.74256 -2.11017 -13.2044 1.51405
lowerback 12.567 3.19033 1.56507
upperback 1.33342 4.41221 -0.436516
thorax -5.47612 2.12592 -2.08442
lowerneck -20.1878 -6.86328 -11.0594
upperneck 14.5921 -8.42931 11.3702
head 8.85778 -3.45954 4.52417
rclavicle -9.93923e-016 4.37326e-015
rhumerus -44.6901 16.9764 -93.7688
rradius 118.185
rwrist -15.0525
rhand -5.80529 19.2763
rfingers 7.12502
rthumb 20.0195 -9.71243
lclavicle -9.93923e-016 4.37326e-015
lhumerus -58.748 -4.47046 90.3555
lradius 113.448
lwrist 23.02
lhand -14.5337 14.2833
lfingers 7.12502
lthumb 11.6145 43.9415
rfemur -12.854 -4.19013 23.107
rtibia 69.501
rfoot 8.44767 15.9231
rtoes 14.2228
lfemur -23.2193 -9.07103 3.07917
ltibia 21.9872
lfoot 5.77893 -5.46619
ltoes -22.941
70
root 14.4488 16.4593 -4.46394 -2.2307 -13.8118 1.55182
lowerback 12.7387 3.10641 1.57526
upperback 1.34841 4.30329 -0.445393
thorax -5.55859 2.07011 -2.09211
lowerneck -20.0413 -6.93969 -11.1113
upperneck 14.8269 -8.52486 11.2167
head 8.91774 -3.52566 4.46875
rclavicle 2.08972e-014 -9.34288e-015
rhumerus -44.9219 17.1033 -94.0145
rradius 117.476
rwrist -14.9763
rhand -5.77717 19.3599
rfingers 7.12502
rthumb 20.0465 -9.626
lclavicle 2.08972e-014 -9.34288e-015
lhumerus -59.1654 -4.55463 90.5
lradius 114.121
lwrist 23.4986
lhand -13.8919 12.4688
lfingers 7.12502
lthumb 12.2333 42.0911
rfemur -13.2629 -4.16462 22.4133
rtibia 71.3119
rfoot 8.77357 15.9602
rtoes 12.3682
lfemur -22.9893 -8.66799 3.05958
ltibia 23.3909
lfoot 4.31387 -5.55053
ltoes -24.2744
71
root 14.4354 16.3666 -4.18485 -2.36583 -14.5052 1.83516
lowerback 12.782 3.04522 1.41218
upperback 1.42055 4.19514 -0.497844
thorax -5.51874 2.0209 -2.03768
lowerneck -19.39 -7.06642 -11.3773
upperneck 14.751 -8.65821 11.0815
head 8.79881 -3.63942 4.45303
rclavicle -2.31584e-014 1.19271e-015
rhumerus -45.3744 17.0499 -94.2968
rradius 116.917
rwrist -15.1119
rhand -6.06679 18.8674
rfingers 7.12502
rthumb 19.7681 -10.1474
lclavicle -2.31584e-014 1.19271e-015
lhumerus -59.4587 -4.70909 90.8106
lradius 114.852
lwrist 24.1493
lhand -13.5851 11.0271
lfingers 7.12502
lthumb 12.5291 40.6315
rfemur -13.8252 -4.35722 21.3678
rtibia 73.1846
rfoot 8.36372 15.6578
rtoes 10.0297
lfemur -22.6338 -8.36912 2.7766
ltibia 25.1784
lfoot 4.58591 -3.20759
ltoes -22.0941
72
root 14.4255 16.2706 -3.90554 -2.52366 -15.5311 2.1405
lowerback 12.6791 3.1015 1.19514
upperback 1.7109 4.23506 -0.47903
thorax -5.17115 2.05218 -1.8848
lowerneck -19.2651 -7.25966 -11.602
upperneck 14.541 -8.8185 10.8991
head 8.72549 -3.75088 4.4005
rclavicle -3.28989e-014 -2.34566e-014
rhumerus -45.6665 16.9079 -94.4416
rradius 116.418
rwrist -15.2625
rhand -6.98147 18.3984
rfingers 7.12502
rthumb 18.8886 -10.7045
lclavicle -3.28989e-014 -2.34566e-014
lhumerus -59.1184 -5.07755 91.4363
lradius 115.297
lwrist 24.6452
lhand -13.6494 11.0412
lfingers 7.12502
lthumb 12.4671 40.6493
rfemur -14.6245 -4.50814 20.2742
rtibia 75.2144
rfoot 7.30628 15.0731
rtoes 7.60815
lfemur -22.0729 -7.97873 2.49816
ltibia 27.285
lfoot -1.60646 -5.22813
ltoes -27.4747
73
root 14.4148 16.2011 -3.56419 -3.37905 -18.1961 2.50925
lowerback 12.0554 3.59085 1.69235
upperback 2.70248 4.90593 -0.927886
thorax -3.68014 2.40743 -2.64284
lowerneck -19.5504 -7.41087 -11.2698
upperneck 13.8201 -9.07437 11.1346
head 8.56009 -3.82588 4.37697
rclavicle -3.85642e-014 1.11319e-014
rhumerus -45.1071 16.4248 -95.0301
rradius 115.733
rwrist -15.4598
rhand -7.00888 18.8286
rfingers 7.12502
rthumb 18.8623 -10.2768
lclavicle -3.85642e-014 1.11319e-014
lhumerus -58.0257 -5.94509 91.5312
lradius 115.584
lwrist 25.0208
lhand -13.3087 10.89
lfingers 7.12502
lthumb 12.7956 40.4779
rfemur -14.6601 -3.27738 19.0896
rtibia 77.1138
rfoot 6.19195 14.2426
rtoes 5.63889
lfemur -19.8007 -7.17673 1.9829
ltibia 29.4861
lfoot -6.47658 -5.32117
ltoes -35.1247
74
root 14.3837 16.0885 -3.35585 -3.62351 -18.3373 2.80469
lowerback 12.7724 3.34041 1.23276
upperback 2.87581 4.52151 -0.832809
thorax -3.95549 2.21512 -2.27572
lowerneck -19.7102 -7.5573 -11.6972
upperneck 13.536 -9.18419 11.495
head 8.54636 -3.86276 4.54903
rclavicle -1.09332e-015 -3.97569e-015
rhumerus -45.2414 15.9813 -95.1909
rradius 115.24
rwrist -15.1951
rhand -7.2838 18.4042
rfingers 7.12502
rthumb 18.5979 -10.7268
lclavicle -1.09332e-015 -3.97569e-015
lhumerus -57.6374 -6.46884 92.5455
lradius 116.073
lwrist 25.2144
lhand -12.9724 10.1605
lfingers 7.12502
lthumb 13.1198 39.7278
rfemur -15.7508 -4.40677 18.2143
rtibia 79.4251
rfoot 4.57061 13.0451
rtoes 3.66498
lfemur -19.9768 -6.17822 1.67863
ltibia 31.6125
lfoot -8.43358 -6.0758
ltoes -32.5183
75
root 14.3494 15.9804 -3.1265 -3.82957 -19.1223 3.37525
lowerback 13.353 3.29864 0.273761
upperback 2.79161 4.34544 -0.628232
thorax -4.45706 2.12882 -1.54311
lowerneck -19.4795 -7.61821 -12.173
upperneck 13.6198 -9.15852 11.4525
head 8.55158 -3.88735 4.62023
rclavicle 5.91384e-015 3.18055e-015
rhumerus -45.9171 15.4815 -95.1123
rradius 114.758
rwrist -14.5172
rhand -7.09999 17.9063
rfingers 7.12502
rthumb 18.7746 -11.2077
lclavicle 5.91384e-015 3.18055e-015
lhumerus -57.5025 -6.82186 93.9252
lradius 116.371
lwrist 25.2887
lhand -12.7587 9.50558
lfingers 7.12502
lthumb 13.3258 39.0595
rfemur -17.0414 -4.94852 17.0749
rtibia 81.768
rfoot 2.51322 11.622
rtoes 1.54159
lfemur -19.7716 -4.49282 1.06762
ltibia 33.465
lfoot -9.999 -6.20541
ltoes -30.4263
